<?xml version="1.0" encoding="UTF-8"?>
<svg id="Capa_1" data-name="Capa 1" xmlns="http://www.w3.org/2000/svg" viewBox="0 0 145.96 110">
  <defs>
    <style>
      .cls-1, .cls-2 {
        stroke-width: 0px;
      }

      .cls-2 {
        fill: #24a6de;
      }
    </style>
  </defs>
  <g>
    <path class="cls-1" d="m86.92,45.63c-.86,2.1,3.75,2.84,5.12,3.15,2.94.66,5.62,2.15,5.83,5.42.23,3.63-2.12,5.87-5.6,6.35-4.7.64-9.25-.77-9.79-6.27,0-.08.03-.13.11-.14l3.57-.35c.06,0,.1.02.11.08.26,1.89,1.4,3.29,3.29,3.49,1.36.15,2.99.01,3.92-1.12.73-.88.81-2.13-.18-2.86-.36-.27-.88-.49-1.54-.67-1.88-.5-3.79-.86-5.56-1.7-2.04-.97-3.2-2.85-3.02-5.11.21-2.64,2.35-4.24,4.86-4.67,4.01-.68,9.18.4,9.3,5.52,0,.05-.02.08-.08.08l-3.65.16c-.08,0-.13-.03-.14-.11-.28-1.34-.86-2.27-2.29-2.53-1.18-.22-3.68-.15-4.25,1.25Z"/>
    <path class="cls-2" d="m63.35,50.2c2.18.55,3.36,2.31,3.37,4.53.02,4.84-5.57,7.32-9.55,5.2-1.63-.87-2.66-2.33-3.07-4.39-.03-.17.03-.26.2-.28l3.25-.39c.07,0,.1.02.12.08.04.21.09.41.14.6.77,3.01,4.76,2.59,5.11-.42.18-1.56-.28-3.04-1.86-3.5-.7-.2-1.5-.02-2.22.17-.03,0-.05,0-.06-.04,0,0,0-.01,0-.02l.38-2.85c0-.07.05-.1.12-.1,1.57.06,3.17-.89,2.92-2.68-.19-1.3-.99-1.9-2.4-1.78-1.18.1-1.92,1.35-2.02,2.43,0,.06-.04.08-.09.07l-3.23-.54s-.06-.03-.05-.07c.41-2.37,1.66-4.14,4.03-4.72,2.3-.56,4.81-.09,6.36,1.81,1.92,2.35,1.18,5.37-1.46,6.72-.04.02-.05.07-.03.1.01.02.03.03.05.04Z"/>
    <path class="cls-1" d="m102.53,48.62c-.03,3.46-.03,5.7,0,6.71.07,3.13,4.42,3.54,4.46.05.02-1.49.06-2.97.14-4.46,0-.06.03-.09.09-.09h3.41c.06,0,.09.03.09.09.01,1.58.01,3.16,0,4.74,0,.37-.14.93-.4,1.68-.95,2.76-3.23,3.84-6.06,3.58-2.43-.23-4.3-1.64-5.06-3.95-.16-.47-.23-1.07-.24-1.8-.01-4.38-.01-8.77,0-13.15,0-.06.03-.09.09-.09h3.42s.05.02.05.05v3.52c0,.06.03.09.09.09h8.02c.06,0,.09.03.09.09v2.77c0,.06-.03.09-.09.09h-8.01c-.06,0-.09.03-.09.09Z"/>
    <path class="cls-2" d="m71.75,48.16s.03.06.06.06c.02,0,.04,0,.05-.03,1.6-2.05,4.56-2.76,6.86-1.57,1.7.88,2.11,2.49,2.12,4.27.01,3.04.01,6.08,0,9.12,0,.06-.03.1-.1.1h-3.46c-.06,0-.09-.03-.09-.09,0-2.49,0-4.97,0-7.46,0-1.83-.23-4-2.68-3.65-2.43.35-2.5,2.64-2.51,4.68,0,2.14-.02,4.28-.03,6.43,0,.06-.03.09-.09.09h-3.51s-.05-.02-.05-.05v-13.6c0-.06.03-.09.09-.09h3.24c.06,0,.09.03.09.09v1.69Z"/>
    <path class="cls-1" d="m120.35,58.73c-1.99,1.86-5.26,2.44-7.41.62-1.39-1.18-1.71-3.37-.83-4.97.7-1.27,2.06-1.81,3.49-2.13,1.49-.33,2.99-.57,4.44-1.06.06-.02.09-.06.09-.12.08-1.18-.32-2.06-1.63-2.13-1.44-.08-2.6-.07-3.11,1.51-.03.11-.11.15-.21.13l-3.09-.56c-.05,0-.07-.04-.06-.09.93-3.68,4.16-4.06,7.37-3.8,2.31.19,4.11,1.11,4.27,3.71.14,2.32.01,3.79.05,6.57.02,1.36.27,2.56.75,3.61.03.06,0,.09-.06.09h-3.42c-.07,0-.11-.03-.13-.09l-.41-1.26s-.05-.05-.09-.04c0,0-.02,0-.03.02Zm-.27-3.15c.07-.63.09-1.26.07-1.9,0-.06-.03-.09-.09-.07-1.7.39-2.85.67-3.46.83-1.55.44-1.73,2.31-.4,3.09,1.47.86,3.7-.25,3.89-1.95Z"/>
    <path class="cls-1" d="m129.33,48.13c.52-.69,1.02-1.53,1.89-1.86,1.11-.42,2.47-.15,3.48.44.05.03.07.08.05.14l-1.06,3c-.02.07-.07.08-.13.05-1.37-.67-2.62-.91-3.46.61-.51.92-.49,2.2-.52,3.56-.04,1.98-.06,3.97-.06,5.96,0,.06-.03.09-.09.09h-3.51s-.05-.02-.05-.05v-13.6c0-.06.03-.09.09-.09h3.19c.06,0,.09.03.09.09v1.64c0,.09.03.1.08.03Z"/>
  </g>
  <g>
    <path class="cls-1" d="m13.13,46.89c5.88-9.06,18.19-11.66,28.04-8.83.02,0,.03.02.03.05h0s-.02.04-.05.03c-8.05-1.29-17.24,1.76-21.32,9.29-.03.05-.07.08-.13.08h-6.8c-.07,0-.09-.03-.06-.1.07-.16.17-.33.29-.52Z"/>
    <path class="cls-1" d="m36.58,44.46c-4.36,1.11-7.67,4.92-7.79,9.56-.12,4.92,3.1,9.08,7.9,10.29.13.03.13.06,0,.09-5.94,1.07-11.53-2.69-12.35-8.74-.52-3.78,1.31-7.68,4.36-9.71,2.38-1.58,5.01-2.13,7.88-1.65.24.04.24.09,0,.15Z"/>
    <path class="cls-2" d="m37.74,63.46c-4.11,0-7.44-4.1-7.44-9.15h0c0-5.05,3.33-9.15,7.44-9.15h0c4.11,0,7.44,4.1,7.44,9.15h0c0,5.05-3.33,9.15-7.44,9.15h0Z"/>
    <path class="cls-2" d="m18.94,49.53c-.52,1.48-.75,3.01-.69,4.58,0,.07-.03.1-.09.1h-7.31c-.06,0-.08-.03-.08-.08.1-1.6.45-3.14,1.04-4.62.02-.05.06-.08.11-.08h6.94c.08,0,.1.04.08.11Z"/>
    <path class="cls-1" d="m22.07,70.64c-5.76-2.6-10.75-7.82-11.28-14.42,0-.07.03-.1.09-.1h7.4c.07,0,.12.04.13.11.71,3.31,2.33,6.09,4.87,8.36,8.65,7.72,23.96,6.89,30.9-2.75.01-.02.03-.02.04,0h0s.02.03.01.04c-2.35,4.37-6.3,7.49-10.88,9.28-6.76,2.64-14.59,2.51-21.29-.51Z"/>
  </g>
</svg>