<?xml version="1.0" encoding="UTF-8"?>
<svg id="Capa_1" data-name="Capa 1" xmlns="http://www.w3.org/2000/svg" viewBox="0 0 136.92 110">
  <defs>
    <style>
      .cls-1, .cls-2 {
        stroke-width: 0px;
      }

      .cls-2 {
        fill: #e60012;
      }
    </style>
  </defs>
  <g>
    <path class="cls-2" d="m51.23,49.74l3.12-9.74s0-.01.02-.01h6.2s.01,0,.01.01c0,0,0,0,0,0-1.78,5.53-3.55,11.06-5.33,16.59-.1.32-.27.72-.49,1.18-.04.08-.1.18-.18.32-.09.14-.15.29-.24.42-.14.2-.27.42-.41.6-.51.67-1.1,1.25-1.76,1.76-.23.18-.5.34-.75.51-.31.2-.68.38-.97.52-.32.15-.67.29-1.03.4-.43.13-.92.21-1.39.3-.13.03-.42.04-.85.05-.23,0-.46,0-.68,0-.57,0-1.15-.11-1.7-.2-.03,0-.09-.02-.18-.05-.01,0-.02-.01,0-.02.59-.49,1.11-.97,1.68-1.57,1.17-1.22,2.18-2.74,2.83-4.33.29-.72.52-1.39.67-2.03.24-.97.37-2.01.42-3.12,0-.2,0-.42,0-.68-.01-.3-.02-.62-.05-.91-.16-1.27-.49-2.46-1.15-3.57-.09-.14-.26-.41-.53-.81-.36-.53-.91-1.07-1.32-1.43-1.64-1.43-3.75-2.23-5.89-2.5-.75-.1-1.53-.11-2.29-.1-.85.01-1.6.12-2.5.27-.27.05-.54.1-.79.16-.52.12-.87.22-1.06.28-.59.19-1.2.39-1.76.62-.68.28-1.28.55-1.81.83-1.39.73-2.74,1.65-3.89,2.62-1.07.91-2.06,1.95-2.96,3.12-.28.37-.56.79-.83,1.19-.38.56-.7,1.18-1,1.79-.11.21-.21.46-.32.74-.14.36-.3.72-.41,1.07-.43,1.35-.7,2.75-.66,4.13.03,1.03.17,2.09.5,3.03.31.85.66,1.58,1.15,2.26.58.82,1.32,1.59,2.15,2.16.74.51,1.5.94,2.37,1.24.52.18,1.03.37,1.57.48.83.17,1.67.29,2.52.32.67.03,1.18-.01,1.77-.04.28-.02.55-.04.81-.08.91-.13,1.83-.3,2.69-.56.6-.18,1.29-.41,1.9-.66.77-.31,1.49-.67,2.23-1.05.01,0,.02,0,.02.01v1.18s0,.03-.02.04c-1.34.78-2.73,1.49-4.2,1.99-.51.18-.89.3-1.14.38-.83.24-1.4.39-1.72.45-.62.11-1.26.24-1.87.3-1.25.13-2.46.15-3.69.05-.26-.02-.53-.05-.8-.1-1.31-.21-2.51-.52-3.6-1.02-1.15-.52-2.15-1.16-3.07-2.03-.78-.74-1.43-1.58-1.95-2.52-.11-.2-.22-.44-.35-.73-.28-.66-.46-1.08-.59-1.73-.16-.75-.29-1.52-.3-2.28-.01-.8.04-1.6.15-2.39.03-.21.1-.57.21-1.09.06-.28.13-.54.2-.78.2-.68.41-1.27.62-1.77.09-.21.28-.62.56-1.22.33-.69.73-1.34,1.14-1.99.14-.23.29-.45.45-.67.91-1.24,1.72-2.22,2.83-3.27,1.29-1.23,2.64-2.27,4.04-3.13.91-.56,1.73-1.01,2.46-1.35.49-.23,1.32-.6,1.99-.83.58-.2,1.02-.35,1.31-.43,1.75-.52,3.53-.81,5.36-.86.23,0,.48,0,.76,0,.65.02,1.32.04,1.97.15.56.1,1.14.2,1.67.33,1.47.39,2.82,1.01,4.08,1.91.26.18.61.49,1.05.91.71.68,1.28,1.41,1.7,2.19.16.3.31.55.43.84.09.21.19.42.26.63.2.57.36,1.14.48,1.73.04.21.07.44.1.66.04.29.05.59.09.88,0,.04.02.04.03,0Z"/>
    <path class="cls-1" d="m36.25,60.33s0-.02-.01,0c-.67.57-1.44,1-2.23,1.38-.31.15-.65.27-.99.39-.67.25-1.39.4-2.09.5-.91.12-1.88.09-2.79,0-.67-.07-1.32-.27-1.85-.63-.6-.42-1.12-1.07-1.34-1.79-.05-.17-.12-.35-.14-.53-.05-.33-.08-.67-.03-1,.06-.42.15-.8.28-1.14.16-.41.3-.72.44-.92.11-.16.21-.34.33-.48.31-.38.68-.73,1.04-1.05.17-.15.38-.31.59-.42.56-.32,1.04-.56,1.43-.7.88-.32,1.77-.57,2.69-.73.5-.09,1-.19,1.51-.27.23-.04.45-.09.67-.13.19-.03.38-.07.56-.11.48-.11.95-.19,1.42-.31,1.03-.27,2.01-.47,3.01-.84.01,0,.02-.01.03-.02.25-.46.34-.94.25-1.47,0,0,0-.01-.01-.02-.36-.18-.76-.37-1.16-.46-.12-.03-.23-.06-.35-.08-.33-.04-.58-.05-.76-.03-.47.05-.89.13-1.24.26-.26.09-.44.18-.55.25-.19.13-.38.24-.55.39-.09.07-.17.15-.25.22-.24.22-.43.49-.61.75,0,.01-.02.02-.03.01l-5.86-.63s-.02,0-.01-.02c.41-.69.9-1.33,1.45-1.9.06-.06.16-.16.3-.28.14-.12.27-.26.41-.37.19-.15.38-.33.57-.46.38-.27.77-.53,1.18-.74.18-.09.35-.2.53-.28.43-.18.86-.34,1.3-.48.37-.12.76-.19,1.15-.27.35-.07.74-.1,1.11-.16.27-.04.71-.06,1.3-.07,1.73-.02,3.49.04,5.15.36,1.39.27,2.57,1.27,3.12,2.6.37.9.4,2.04.11,2.95-.98,3.1-2,6.19-2.97,9.29-.14.44-.07.92.07,1.34,0,.01,0,.02-.01.02h-5.96s-.02,0-.03-.01c-.19-.32-.3-.68-.3-1.05,0-.3,0-.55.11-.84Zm-3.27-4.35c-.27.12-.54.22-.79.38-.15.1-.33.26-.52.48-.04.04-.11.15-.21.31-.3.48-.34.99-.04,1.44.14.21.34.41.62.48.71.19,1.5.06,2.2-.14.49-.14.84-.34,1.31-.6.22-.12.38-.29.57-.45.63-.53,1.06-1.24,1.38-2.01.15-.38.27-.84.4-1.26,0-.02,0-.03-.02-.02-.31.11-.62.19-.93.29-.34.11-.67.16-1,.25-.39.1-.61.16-.92.23-.63.14-1.26.35-1.87.56-.05.02-.1.04-.15.06Z"/>
  </g>
  <g>
    <path class="cls-1" d="m67.32,48.48s0,.02.01.02c0,0,.01,0,.02,0,.58-.63,1.26-1.15,2.02-1.57.46-.25.99-.5,1.52-.67.24-.08.49-.16.72-.21.77-.17,1.55-.26,2.34-.26.07,0,.14.03.22.04.5.01,1.09.15,1.49.33.79.35,1.54,1.12,1.88,1.92.19.46.3,1.06.26,1.58-.02.21-.02.38-.08.62-.04.16-.05.36-.09.5-1.27,3.96-2.54,7.92-3.81,11.87,0,.01-.01.02-.02.02h-6.23s-.02,0-.02-.02c0,0,0,0,0,0,1.08-3.34,2.17-6.68,3.25-10.02.15-.45.14-.99-.11-1.35-.21-.3-.46-.51-.75-.62-.19-.07-.37-.11-.58-.09-.37.03-.73.11-1.07.25-.14.05-.27.11-.41.17-.41.17-.79.49-1.1.78-.07.06-.14.14-.21.23-.4.5-.75,1.06-.9,1.69-.01.05-.04.08-.05.12-.93,2.96-1.87,5.91-2.8,8.87,0,0,0,.01-.02.01h-6.2s-.02,0-.01-.02l7.2-22.69s.01-.02.02-.02h6.21s.01,0,.01.01c0,0,0,0,0,0l-2.67,8.53Z"/>
    <path class="cls-1" d="m109.83,60.35s0-.03-.02-.01c-.25.22-.52.42-.81.6-.6.36-1.24.75-1.9.98-.58.21-1.14.41-1.75.53-.44.08-.89.18-1.34.2-.92.04-1.71.04-2.5-.08-.38-.06-.64-.12-.79-.18-.21-.09-.42-.15-.61-.27-.11-.07-.22-.13-.32-.2-.25-.19-.41-.37-.6-.58-.08-.08-.14-.16-.18-.22-.57-.83-.79-1.82-.58-2.81.03-.14.04-.3.09-.43.14-.41.29-.77.45-1.07.22-.43.59-.88.9-1.19.37-.38.73-.68,1.1-.92,1.02-.66,2.3-1.08,3.51-1.34.81-.17,1.63-.33,2.45-.47.32-.06.65-.1.96-.17.48-.11.95-.19,1.42-.31.29-.08.54-.14.76-.19.78-.17,1.54-.39,2.29-.66.01,0,.02-.01.03-.02.25-.48.33-.92.25-1.47,0-.01,0-.02-.02-.03-.35-.2-.79-.34-1.18-.44-.29-.07-.55-.11-.8-.11-.28,0-.58.03-.89.09-.84.16-1.64.56-2.2,1.26-.14.18-.28.36-.42.53,0,0-.01,0-.02,0l-5.86-.63s-.01,0-.01-.01c0,0,0,0,0,0,.41-.64.83-1.27,1.35-1.83.16-.17.42-.41.78-.72.39-.34.73-.59,1-.76.6-.36.96-.59,1.51-.81.79-.31,1.32-.49,2.01-.63.82-.16,1.66-.25,2.52-.27,1.8-.03,3.6.02,5.27.35.48.09.96.29,1.44.57.09.06.29.21.59.46.07.06.19.18.37.38.7.8,1.09,1.92,1.01,2.98-.01.16-.02.33-.05.48-.09.47-.23.86-.36,1.29-.89,2.87-1.8,5.74-2.72,8.6-.08.24-.12.59-.07.86.02.13.04.25.08.37.02.06.05.12.07.18,0,.01,0,.02-.01.02h-5.96s-.02,0-.03-.02c-.34-.59-.4-1.22-.19-1.87Zm1.06-4.05c.26-.52.4-1.12.57-1.67,0-.02,0-.03-.02-.02-.15.05-.3.1-.46.15-.35.1-.68.21-1.02.29-.5.11-.89.22-1.42.34-.41.09-.97.26-1.69.5-.48.16-.94.36-1.35.7-.41.34-.77.95-.71,1.5.04.34.24.66.51.87.41.32,1.01.29,1.49.22.64-.09,1.26-.27,1.84-.56.19-.1.37-.23.56-.35.76-.49,1.31-1.2,1.69-1.96Z"/>
    <path class="cls-1" d="m88.51,60.01s0-.03-.02,0c-.69.73-1.67,1.37-2.62,1.82-.16.08-.35.15-.55.23-.25.09-.5.19-.75.26-.52.14-.89.22-1.11.26-.62.1-1.06.1-1.6.1-.09,0-.2-.01-.34-.03-.15-.02-.31-.02-.45-.05-.56-.1-1.09-.29-1.55-.63-.98-.72-1.48-1.72-1.5-2.99,0-.33.09-.64.14-.96.03-.19.05-.37.1-.53,1.25-3.89,2.51-7.78,3.76-11.67,0,0,0,0,.01,0h6.2s.02,0,.02.02c-1.06,3.31-2.12,6.63-3.18,9.94-.04.12-.07.23-.09.33-.06.27-.06.4-.01.67.03.18.13.41.24.56.27.38.78.65,1.26.6.21-.02.42-.04.63-.1.69-.19,1.35-.48,1.86-.99.12-.12.26-.25.37-.38.26-.3.46-.64.62-1,.1-.23.18-.53.27-.8.95-2.95,1.89-5.89,2.84-8.84,0,0,0,0,0,0h6.25s.01,0,.01.01c0,0,0,0,0,0l-5.33,16.42s0,.01-.02.01h-6.14s-.02,0-.02-.02c0,0,0,0,0,0l.7-2.2Z"/>
  </g>
  <g>
    <path class="cls-1" d="m55.95,68.82c-.21.44-.53.74-.95.9-.26.1-.65.11-1.01.1-.2,0-.45-.09-.63-.17-.35-.16-.62-.41-.8-.75-.09-.16-.17-.31-.22-.48-.07-.25-.1-.44-.1-.55,0-.48.04-.85.23-1.25.2-.43.48-.7.9-.92.44-.23,1.16-.27,1.63-.1.1.04.19.06.28.1.44.23.64.52.8,1,0,0,0,.02-.01.02l-.84.2s-.03,0-.03-.02c-.09-.39-.41-.62-.79-.68-.13-.02-.32,0-.44.03-.42.13-.67.47-.78.89-.16.61-.07,1.32.45,1.75.26.21.62.25.94.16.41-.11.55-.46.67-.82,0-.01.01-.02.03-.01l.81.24s.02.02.02.03c-.02.09-.06.2-.12.32Z"/>
    <path class="cls-1" d="m66.97,65.6c1.24-.39,2.49.28,2.73,1.58.02.12.05.23.05.36,0,.29,0,.57-.1.85-.08.23-.19.45-.33.66-.21.3-.59.57-.94.68-.56.17-1.1.14-1.62-.1-.18-.08-.34-.2-.48-.34-.4-.4-.65-.94-.66-1.51,0-.47.12-.95.37-1.35.05-.08.1-.17.16-.24.24-.28.47-.47.82-.58Zm.67,3.5c1.11.05,1.44-1.22,1.16-2.08-.25-.77-1.12-1.01-1.77-.61-.09.05-.14.14-.21.21-.44.5-.45,1.5-.04,2.01.24.29.47.44.87.46Z"/>
    <path class="cls-1" d="m77.46,67.56c.01.6-.15,1.2-.59,1.66-.12.13-.3.24-.45.35-.03.02-.09.05-.2.09-.6.22-1.18.21-1.74-.04-.82-.37-1.2-1.25-1.16-2.11,0-.05.02-.12.04-.21.02-.1.03-.19.06-.28.1-.28.25-.65.46-.88.21-.23.4-.39.59-.48.12-.06.29-.11.51-.15.21-.04.51-.05.72-.01.46.08.89.29,1.2.65.2.23.4.53.46.83.04.19.09.39.09.57Zm-1.61,1.44c.16-.06.25-.11.29-.16.07-.09.16-.17.21-.27.28-.49.33-1.01.15-1.55-.08-.24-.22-.48-.46-.62-.41-.24-.89-.26-1.3,0-.13.09-.29.29-.37.43-.26.48-.25,1.19.02,1.66.08.14.17.25.27.33.35.28.74.33,1.19.16Z"/>
    <path class="cls-1" d="m81.27,69.55c-.33.15-.64.28-1.02.28-.58,0-1.01-.13-1.46-.48-.1-.08-.16-.19-.24-.29-.13-.16-.28-.49-.33-.72-.22-.88-.01-1.92.73-2.48.13-.1.3-.16.45-.23.33-.16.91-.14,1.27-.08.26.04.5.13.72.31.27.23.44.51.5.86,0,.01,0,.02-.02.02l-.65.13s-.03,0-.03-.02c-.15-.51-.64-.7-1.14-.65-.6.06-.95.39-1.07.97-.14.72-.01,1.69.85,1.9.13.03.29.04.5.03.4-.03.63-.09.95-.35,0,0,.01-.02.01-.03v-.47s0-.02-.02-.02h-1.08s-.02,0-.02-.02v-.66s0-.02.02-.02h1.73s.02,0,.02.02v2.23s0,.02-.02.02h-.61s-.02,0-.02-.02v-.19s0-.03-.03-.02Z"/>
    <path class="cls-1" d="m46.62,66.29v3.46s0,.02-.02.02h-.8s-.02,0-.02-.02h0v-3.46s0-.02-.02-.02h-1.17s-.02,0-.02-.02h0v-.69s0-.02.02-.02h3.21s.02,0,.02.02h0v.69s0,.02-.02.02h-1.18s-.02,0-.02.02h0Z"/>
    <path class="cls-1" d="m49.49,69.05h2.25s.02,0,.02.02h0v.68s0,.02-.02.02h-3.08s-.02,0-.02-.02h0v-4.17s0-.02.02-.02h3s.02,0,.02.02v.69s0,.02-.02.02h-2.17s-.02,0-.02.02v.89s0,.02.02.02h2.01s.02,0,.02.02h0v.68s0,.02-.02.02h-2.01s-.02,0-.02.02v1.11s0,.02.02.02Z"/>
    <path class="cls-1" d="m59.57,67.93h-1.84s-.01,0-.01.01h0v1.8s0,.01-.01.01h-.81s-.01,0-.01-.01h0v-4.18s0-.01.01-.01h.81s.01,0,.01.01h0v1.64s0,.01.01.01h1.84s.01,0,.01-.01v-1.64s0-.01.01-.01h.78s.01,0,.01.01v4.18s0,.01-.01.01h-.78s-.01,0-.01-.01v-1.8s0-.01-.01-.01Z"/>
    <path class="cls-1" d="m62.17,67.06v2.68s0,.02-.02.02h-.73s-.02,0-.02-.02v-4.16s0-.02.02-.02h.67s.03,0,.04.02l1.9,2.77s.02.02.02,0v-2.77s0-.02.02-.02h.73s.02,0,.02.02v4.17s0,.01-.01.01h-.72s-.03,0-.04-.02l-1.86-2.69s-.02-.02-.02,0Z"/>
    <path class="cls-1" d="m84.09,67.2l.93-1.64s0,0,.01,0h.92s.01,0,.01.01c0,0,0,0,0,0l-1.47,2.43s0,0,0,0v1.74s0,.01-.01.01h-.8s-.01,0-.01-.01v-1.76s0,0,0,0l-1.47-2.41s0-.01,0-.02c0,0,0,0,0,0h.94s0,0,.01,0l.93,1.64s.01,0,.02,0c0,0,0,0,0,0Z"/>
    <path class="cls-1" d="m71.26,69.05h1.82s.02,0,.02.02h0v.68s0,.02-.02.02h-2.65s-.02,0-.02-.02v-4.13s0-.02.02-.02h.8s.02,0,.02.02h0v3.42s0,.02.02.02h0Z"/>
  </g>
</svg>