<?xml version="1.0" encoding="UTF-8"?>
<svg id="Capa_1" data-name="Capa 1" xmlns="http://www.w3.org/2000/svg" xmlns:xlink="http://www.w3.org/1999/xlink" viewBox="0 0 178.34 110">
  <defs>
    <style>
      .cls-1 {
        fill: url(#Degradado_sin_nombre_2);
      }

      .cls-1, .cls-2, .cls-3, .cls-4 {
        stroke-width: 0px;
      }

      .cls-2 {
        fill: #4f4c4d;
      }

      .cls-3 {
        fill: #39a2e1;
      }

      .cls-4 {
        fill: #0d0d0d;
      }
    </style>
    <linearGradient id="Degradado_sin_nombre_2" data-name="Degradado sin nombre 2" x1="240.53" y1="-110.65" x2="241.32" y2="-110.65" gradientTransform="translate(-7525.88 3542.64) scale(31.41)" gradientUnits="userSpaceOnUse">
      <stop offset="0" stop-color="#656263"/>
      <stop offset="1" stop-color="#a7a5a6"/>
    </linearGradient>
  </defs>
  <g>
    <g>
      <path class="cls-4" d="m53.72,57.23l.92-2.99v-20.49c-10.72,0-11.83,4.11-11.83,8.03v22.5c0,1.17-.11,2.4-.35,3.61,5.68-1.03,9.39-4.55,11.26-10.67"/>
      <g>
        <path class="cls-3" d="m26.29,38.43h-2.37v-2.34h2.37v2.34Zm2.37,3.53h-2.37v-2.34h2.37v2.34Zm-2.38,2.94h-2.34v-2.34h2.34v2.34Zm-2.37,3.51h-2.34v-2.34h2.34v2.34Zm-4.72-12.32h-2.37v-2.36h2.37v2.36Z"/>
        <path class="cls-3" d="m21.56,50.75h2.36v5.21h2.37v-8.72h2.37v17.04c0,8.09,7.08,11.99,7.08,11.99-11.89,0-18.91-7.21-18.91-16.79v-19.28h2.37v12.9h2.37v-2.34Z"/>
      </g>
    </g>
    <path class="cls-1" d="m37.39,69.16c-3.16-.14-5.58-.94-7.47-2.1,1.27,5.53,6.04,8.25,6.27,8.37l1.4.77c10.75-.72,17.04-7.66,17.04-16.73v-1.97c-2.55,8.33-8.5,12.04-17.24,11.65"/>
    <path class="cls-3" d="m23.91,40.79h-2.34v-2.34h2.34v2.34Z"/>
  </g>
  <g>
    <path class="cls-2" d="m125.34,58.85c-1.98,0-3.52-.55-4.58-1.63-1.09-1.1-1.62-2.7-1.59-4.75v-9.57s.02,0,.02,0c.53,0,2.26.13,2.26,1.74v8.33c.06,2.47,1.48,3.89,3.89,3.89s3.83-1.42,3.89-3.89v-8.33c0-1.62,1.73-1.74,2.26-1.74h.02v9.57c.03,2.05-.5,3.65-1.59,4.75-1.06,1.08-2.61,1.63-4.58,1.63m-52.66,0c-1.98,0-3.52-.55-4.58-1.63-1.09-1.1-1.62-2.7-1.59-4.75l.03-9.57h.02c.53,0,2.26.13,2.26,1.74l-.03,8.33c.06,2.47,1.48,3.89,3.89,3.89s3.83-1.42,3.89-3.89l.03-8.33c0-1.62,1.73-1.74,2.26-1.74h.02l-.04,9.57c.03,2.05-.5,3.65-1.59,4.75-1.06,1.08-2.61,1.63-4.58,1.63m36.47-1.99c-3.87,0-4.45-3.73-4.45-5.96,0-1.79.43-6.03,4.45-6.03s4.45,3.8,4.45,6.03c0,1.79-.43,5.96-4.45,5.96m8.75,1.68c0-.24-.04-1.05-.5-1.53-.24-.26-.57-.38-.98-.38h-2.67c1.43-1.4,2.23-3.42,2.23-5.72,0-3.84-1.8-8.01-6.84-8.01s-6.84,4.17-6.84,8.01,1.79,7.94,6.83,7.95h.01c.39-.02.79-.06,1.2-.13.24-.03.5-.07.75-.12l.4-.07h6.4Zm17.5.16v-14.06c0-1.62,1.73-1.75,2.26-1.75h.02v15.54c0,.14-.12.26-.26.26h-2.02Zm-38.36.05v-14.11c0-1.62,1.73-1.74,2.26-1.74h.02v15.6c0,.14-.12.26-.26.26h-2.02Zm56.48-.05v-14.1c0-1.62,1.73-1.75,2.26-1.75h.02v15.58c0,.14-.12.26-.26.26h-2.02Zm-13.6-15.76v1.99h4.66v13.78h2.02c.14,0,.26-.12.26-.25v-13.52h4.25c.14,0,.26-.12.26-.25v-1.74h-11.45Z"/>
    <path class="cls-2" d="m139.96,42.94v1.99h4.67v13.78h2.02c.14,0,.26-.12.26-.25v-13.52h4.25c.14,0,.26-.12.26-.25v-1.74h-11.45Zm-51.17,13.77h-3.63v-5.17h3.39c1.06,0,2.85.44,2.85,2.59,0,1.99-1.53,2.53-2.61,2.58m1.99-9.45c0,.84-.26,1.53-.79,1.87-.38.25-.9.38-1.62.42h-3.37v-4.58h3.24c1.82.07,2.54.81,2.54,2.3m.26,3.29l-.19-.06.19-.08c1.31-.57,2.13-1.9,2.13-3.29,0-2.56-1.81-4.14-4.96-4.14h-5.48v15.73h5.48c.15,0,.31,0,.46,0,.63,0,1.45-.04,2.16-.3,1.73-.64,2.8-2.19,2.8-3.86,0-1.44-.68-3.44-2.58-4m-24.23,12.9h.84l2.09,3.37h.01v-3.37h.76v4.57h-.84l-2.08-3.36h-.02v3.36h-.76v-4.57Zm12.29,0h3.29v.69h-2.49v1.2h2.3v.65h-2.3v1.34h2.53v.69h-3.33v-4.57Zm11.33,0h3.7v.69h-1.45v3.88h-.8v-3.88h-1.45v-.69Zm11.62,0h.81l.83,3.49h.01l.92-3.49h.82l.9,3.49h.01l.85-3.49h.81l-1.26,4.57h-.81l-.91-3.49h-.01l-.94,3.49h-.82l-1.2-4.57Zm15.96.54c-.22,0-.44.04-.63.15-.17.09-.32.23-.43.39-.11.17-.2.36-.25.56-.11.42-.11.86,0,1.28.05.21.14.4.25.56.11.16.26.3.43.39.19.1.41.15.63.15.25,0,.45-.05.63-.15.18-.1.32-.23.43-.39.11-.16.19-.35.24-.56.05-.21.08-.42.08-.64s-.03-.43-.08-.64c-.05-.2-.13-.39-.24-.56-.11-.16-.26-.3-.43-.39-.18-.1-.38-.15-.63-.15m0-.65c.34,0,.65.06.92.19.26.12.5.3.69.52.19.22.33.47.43.76.1.29.15.6.15.92s-.05.64-.15.93c-.09.28-.24.54-.43.76-.19.22-.42.39-.69.51-.27.13-.58.19-.92.19s-.65-.06-.92-.19c-.26-.12-.5-.3-.69-.51-.19-.22-.33-.47-.43-.76-.1-.29-.15-.6-.15-.93s.05-.63.15-.92c.1-.29.25-.54.43-.76.4-.46.99-.73,1.61-.71m11.35,2.19h1.31c.26,0,.45-.06.58-.18.13-.12.2-.3.2-.55,0-.12-.02-.24-.06-.36-.04-.09-.1-.16-.18-.21-.08-.05-.16-.09-.26-.1-.1-.02-.19-.02-.3-.02h-1.3v1.43Zm-.8-2.08h2.18c.5,0,.88.11,1.13.33.25.22.38.52.38.91,0,.22-.03.4-.1.54s-.14.26-.22.35c-.07.08-.16.14-.25.19-.06.03-.12.06-.18.08h0c.07.02.14.04.22.08s.15.09.22.16c.07.08.12.17.17.29.05.12.07.27.07.45,0,.27.02.51.06.73.04.22.1.38.19.47h-.86c-.06-.1-.1-.21-.1-.33-.01-.11-.02-.23-.02-.35,0-.21-.01-.39-.04-.54s-.07-.28-.14-.38-.16-.17-.28-.22c-.14-.05-.3-.08-.45-.07h-1.18v1.88h-.8v-4.57Zm12.17,0h.8v2.08l2.04-2.08h.98l-1.82,1.82,1.95,2.74h-1l-1.5-2.18-.65.65v1.54h-.8v-4.57Zm12.41,3.04c0,.18.03.33.09.45.06.12.14.22.25.3.11.08.23.14.37.17.14.04.29.05.45.05.18,0,.32-.02.45-.06s.22-.09.3-.16.13-.14.17-.22c.03-.08.05-.17.05-.25,0-.18-.04-.3-.12-.39-.07-.08-.16-.14-.26-.18-.19-.07-.37-.12-.57-.17-.22-.05-.48-.12-.8-.21-.17-.04-.34-.11-.49-.2-.12-.07-.22-.17-.31-.28-.08-.1-.13-.21-.16-.33s-.05-.23-.05-.35c-.01-.41.19-.79.52-1.02.16-.11.34-.19.54-.25.2-.05.4-.08.61-.08.24,0,.46.03.67.09.21.06.4.15.56.28.16.12.29.28.38.46.1.2.15.41.14.63h-.8c-.02-.29-.12-.5-.3-.62s-.41-.18-.68-.18c-.09,0-.19,0-.29.03-.09.02-.18.05-.27.1-.08.04-.15.11-.2.18-.05.09-.08.19-.08.29,0,.16.05.29.15.38.1.09.23.16.39.21.02,0,.08.02.2.05l.39.1.43.11c.14.04.24.06.3.08.15.05.28.11.39.19s.2.17.28.28c.07.1.13.22.17.34.04.12.05.24.05.36,0,.23-.05.46-.16.66-.1.18-.24.33-.41.44-.18.12-.37.2-.58.25-.22.05-.44.08-.67.08-.26,0-.5-.03-.74-.1-.22-.06-.42-.16-.6-.29-.17-.14-.31-.31-.41-.51-.1-.21-.16-.45-.16-.73h.8Zm5.54-22.2h.28c.23,0,.45-.01.45-.28,0-.23-.19-.26-.37-.26h-.35v.54Zm-.26-.75h.66c.4,0,.59.16.59.49,0,.31-.19.44-.45.46l.49.75h-.28l-.46-.73h-.28v.73h-.26v-1.7Zm.57,2.09c.67,0,1.19-.54,1.19-1.25s-.52-1.23-1.19-1.23-1.2.54-1.2,1.23.52,1.25,1.2,1.25m0-2.69c.79,0,1.46.63,1.46,1.45s-.66,1.46-1.46,1.46-1.46-.63-1.46-1.46.67-1.45,1.46-1.45"/>
  </g>
</svg>