<?xml version="1.0" encoding="UTF-8"?>
<svg id="Capa_1" data-name="Capa 1" xmlns="http://www.w3.org/2000/svg" viewBox="0 0 171.92 110">
  <defs>
    <style>
      .cls-1 {
        stroke-width: 0px;
      }
    </style>
  </defs>
  <polygon class="cls-1" points="52.61 55.59 50.01 52.89 49.98 60.39 52.59 60.4 52.61 55.59"/>
  <path class="cls-1" d="m42.05,47.5l6.46.02-2.6-2.62h-3.44c2.2-.21,4-2.06,4.01-4.33,0-2.41-1.91-4.41-4.38-4.42l-.03,8.73-7.26-7.25c-.41.2-.76.41-1.1.61-.41.27-.76.55-1.17.82l6.85,6.9-.06,15.06,5.27,5.32v-3.78s-2.66-2.69-2.66-2.69l.12-12.38Z"/>
  <polygon class="cls-1" points="44.66 47.51 44.62 60.37 47.3 60.38 47.34 50.2 44.66 47.51"/>
  <polygon class="cls-1" points="53.79 52.91 51.12 50.22 47.34 50.2 50.01 52.89 53.79 52.91"/>
  <path class="cls-1" d="m36.65,58.48l.04-11.42-6.1-6.14c-.55.69-1.11,1.44-1.52,2.26l4.93,4.97v3.78s-5.97-6.01-5.97-6.01c-.28,1.03-.42,2.13-.49,3.3.07,0,8.84,8.97,9.11,9.25"/>
  <polygon class="cls-1" points="27.66 53.01 27.64 56.8 44.56 73.85 44.58 70.13 27.66 53.01"/>
  <path class="cls-1" d="m57.97,57.12h-2.68s-.01,3.36-.01,3.36h-2.68c0,2.4,1.98,4.4,4.38,4.41,2.41,0,4.41-1.98,4.42-4.38l-3.43-3.38Z"/>
  <polygon class="cls-1" points="79.76 60.57 77.61 64.35 65.16 64.3 73.27 48.86 66.12 48.83 68.13 45.05 80.57 45.1 72.47 60.54 79.76 60.57"/>
  <polygon class="cls-1" points="86.87 52.83 93.2 52.85 93.18 56.64 86.86 56.61 86.84 60.6 93.17 60.62 93.15 64.41 82.08 64.36 82.15 45.11 93.23 45.15 93.21 48.93 86.89 48.91 86.87 52.83"/>
  <path class="cls-1" d="m99.97,61.13h1.72c1.99.01,2.82-.67,2.83-2.18,0-.89-.34-1.58-1.02-2-.55-.28-.96-.35-2.41-.35h-1.1s-.02,4.53-.02,4.53Zm.03-7.98h1.17c2.13.01,3.03-.67,3.03-2.25,0-1.58-.89-2.2-3.09-2.21h-1.1s-.02,4.47-.02,4.47Zm1.96-7.97c2.48,0,3.85.29,4.95.91,1.3.83,2.12,2.48,2.12,4.34,0,1.38-.42,2.47-1.32,3.36-.55.55-.97.82-2,1.09,1.17.28,1.72.56,2.33,1.11.89.83,1.3,1.93,1.29,3.37,0,1.79-.77,3.37-2.01,4.19-.96.61-2.14.89-4.06.88l-7.91-.03.07-19.32,6.53.09Z"/>
  <path class="cls-1" d="m117.47,54.39c1.93,0,3.1-.95,3.1-2.67,0-1.58-1.09-2.69-2.74-2.69h-1.79s-.02,5.36-.02,5.36h1.44Zm-1.55,10.1l-4.68-.02.07-19.32,6.26.02c2.54,0,4.4.5,5.7,1.47,1.3,1.04,2.05,2.76,2.04,4.89-.01,2.96-1.26,4.88-3.74,5.83l4.24,7.1-5.64-.02-4.17-7.51-.1,7.56Z"/>
  <path class="cls-1" d="m133.14,57.06l1.95-6.25,1.9,6.27h-3.85Zm5.07-11.74l-5.98-.02-6.47,19.3,4.95.02,1.18-3.78,6.26.02,1.15,3.79,5.09.02-6.18-19.35Z"/>
</svg>